<svg xmlns="http://www.w3.org/2000/svg" x="0px" y="0px"
width="64" height="64"
viewBox="0 0 172 172"
style=" fill:#000000;"><defs><linearGradient x1="84.65625" y1="151.84106" x2="84.65625" y2="96.46513" gradientUnits="userSpaceOnUse" id="color-1_119460_gr1"><stop offset="0" stop-color="#ccb400"></stop><stop offset="0.299" stop-color="#d4be08"></stop><stop offset="0.706" stop-color="#d9c426"></stop><stop offset="1" stop-color="#ddcb3c"></stop></linearGradient><radialGradient cx="88.23869" cy="-2999.47306" r="69.875" gradientUnits="userSpaceOnUse" id="color-2_119460_gr2"><stop offset="0" stop-color="#f4e9c3"></stop><stop offset="0.219" stop-color="#f8eecd"></stop><stop offset="0.644" stop-color="#fdf4dc"></stop><stop offset="1" stop-color="#fff6e1"></stop></radialGradient><radialGradient cx="84.43319" cy="-3015.59806" r="77.31937" gradientUnits="userSpaceOnUse" id="color-3_119460_gr3"><stop offset="0" stop-color="#f4e9c3"></stop><stop offset="0.219" stop-color="#f8eecd"></stop><stop offset="0.644" stop-color="#fdf4dc"></stop><stop offset="1" stop-color="#fff6e1"></stop></radialGradient><radialGradient cx="86" cy="86" r="86" gradientUnits="userSpaceOnUse" id="color-4_119460_gr4"><stop offset="0" stop-color="#f4e9c3"></stop><stop offset="0.219" stop-color="#f8eecd"></stop><stop offset="0.644" stop-color="#fdf4dc"></stop><stop offset="1" stop-color="#fff6e1"></stop></radialGradient><linearGradient x1="84.65625" y1="139.73388" x2="84.65625" y2="71.62188" gradientUnits="userSpaceOnUse" id="color-5_119460_gr5"><stop offset="0" stop-color="#ccb400"></stop><stop offset="0.299" stop-color="#d4be08"></stop><stop offset="0.706" stop-color="#d9c426"></stop><stop offset="1" stop-color="#ddcb3c"></stop></linearGradient><linearGradient x1="84.65625" y1="29.5625" x2="84.65625" y2="72.5625" gradientUnits="userSpaceOnUse" id="color-6_119460_gr6"><stop offset="0" stop-color="#ecda52"></stop><stop offset="0" stop-color="#ecda52"></stop><stop offset="0.36" stop-color="#ecdc64"></stop><stop offset="0.867" stop-color="#efde4d"></stop><stop offset="1" stop-color="#e3cf34"></stop></linearGradient><linearGradient x1="84.65625" y1="139.75" x2="84.65625" y2="49.43119" gradientUnits="userSpaceOnUse" id="color-7_119460_gr7"><stop offset="0" stop-color="#d7c326"></stop><stop offset="1" stop-color="#e9d225"></stop></linearGradient><linearGradient x1="84.65625" y1="86.64769" x2="84.65625" y2="43.64769" gradientUnits="userSpaceOnUse" id="color-8_119460_gr8"><stop offset="0" stop-color="#d7c326"></stop><stop offset="0.557" stop-color="#ecd42e"></stop><stop offset="1" stop-color="#e9d225"></stop></linearGradient><linearGradient x1="84.65625" y1="72.5625" x2="84.65625" y2="29.5625" gradientUnits="userSpaceOnUse" id="color-9_119460_gr9"><stop offset="0" stop-color="#dbcb44"></stop><stop offset="0.515" stop-color="#e5d245"></stop><stop offset="1" stop-color="#e3cf36"></stop></linearGradient><linearGradient x1="84.65625" y1="29.5625" x2="84.65625" y2="72.5625" gradientUnits="userSpaceOnUse" id="color-10_119460_gr10"><stop offset="0" stop-color="#ecda52"></stop><stop offset="0" stop-color="#ecda52"></stop><stop offset="0.36" stop-color="#ecdc64"></stop><stop offset="0.867" stop-color="#efde4d"></stop><stop offset="1" stop-color="#e3cf34"></stop></linearGradient></defs><g fill="none" fill-rule="nonzero" stroke="none" stroke-width="1" stroke-linecap="butt" stroke-linejoin="miter" stroke-miterlimit="10" stroke-dasharray="" stroke-dashoffset="0" font-family="none" font-weight="none" font-size="none" text-anchor="none" style="mix-blend-mode: normal"><path d="M0,172v-172h172v172z" fill="none"></path><g><path d="M150.113,63.62119c0.35744,1.15831 0.45956,2.3865 0.26337,3.58244l-40.18887,5.35888h-51.0625l-40.19156,-5.35887c-0.19619,-1.19863 -0.09406,-2.42413 0.26337,-3.58244c-0.77938,2.48594 -0.31981,5.289 1.49425,7.40675l55.52912,64.83325c4.42363,5.16537 12.44313,5.16537 16.86675,0l55.52912,-64.83325c1.81944,-2.12044 2.27631,-4.9235 1.49694,-7.40675z" fill="url(#color-1_119460_gr1)"></path><path d="M16.125,21.5v0c5.93669,0 10.75,-4.81331 10.75,-10.75v0c0,-5.93669 -4.81331,-10.75 -10.75,-10.75v0c-5.93669,0 -10.75,4.81331 -10.75,10.75v0c0,5.93669 4.81331,10.75 10.75,10.75z" fill="url(#color-2_119460_gr2)"></path><path d="M20.15625,172v0c5.19494,0 9.40625,-4.21131 9.40625,-9.40625v0c0,-5.19494 -4.21131,-9.40625 -9.40625,-9.40625v0c-5.19494,0 -9.40625,4.21131 -9.40625,9.40625v0c0,5.19494 4.21131,9.40625 9.40625,9.40625z" fill="url(#color-3_119460_gr3)"></path><path d="M26.875,64.5c0,4.45319 -3.60931,8.0625 -8.0625,8.0625h-5.375h-0.02419c-7.41212,0.01344 -13.41331,6.02537 -13.41331,13.4375v0c0,7.42019 6.01731,13.4375 13.4375,13.4375h14.78125c5.19494,0 9.40625,4.21131 9.40625,9.40625v0c0,5.19494 -4.21131,9.40625 -9.40625,9.40625h-4.03125c-5.93669,0 -10.75,4.81331 -10.75,10.75v0c0,5.93669 4.81331,10.75 10.75,10.75h22.84375c3.71144,0 6.71875,3.00731 6.71875,6.71875v0c0,3.71144 -3.00731,6.71875 -6.71875,6.71875v0c-5.19494,0 -9.40625,4.21131 -9.40625,9.40625v0c0,5.19494 4.21131,9.40625 9.40625,9.40625h80.625c5.19494,0 9.40625,-4.21131 9.40625,-9.40625v0c0,-5.19494 -4.21131,-9.40625 -9.40625,-9.40625h-1.34375c-2.96969,0 -5.375,-2.40531 -5.375,-5.375v0c0,-2.96969 2.40531,-5.375 5.375,-5.375h21.5c5.93669,0 10.75,-4.81331 10.75,-10.75v0c0,-5.93669 -4.81331,-10.75 -10.75,-10.75h-4.03125c-3.71144,0 -6.71875,-3.00731 -6.71875,-6.71875v0c0,-3.71144 3.00731,-6.71875 6.71875,-6.71875h17.46875c5.93669,0 10.75,-4.81331 10.75,-10.75v0c0,-5.93669 -4.81331,-10.75 -10.75,-10.75h-9.40625c-5.19494,0 -9.40625,-4.21131 -9.40625,-9.40625v0c0,-5.19494 4.21131,-9.40625 9.40625,-9.40625h8.0625c6.67844,0 12.09375,-5.41531 12.09375,-12.09375v0c0,-6.67844 -5.41531,-12.09375 -12.09375,-12.09375h-14.78125c-5.93669,0 -10.75,-4.81331 -10.75,-10.75v0c0,-5.93669 4.81331,-10.75 10.75,-10.75h2.6875c5.93669,0 10.75,-4.81331 10.75,-10.75v0c0,-5.93669 -4.81331,-10.75 -10.75,-10.75h-104.8125c-5.93669,0 -10.75,4.81331 -10.75,10.75v0c0,5.93669 4.81331,10.75 10.75,10.75h8.0625c4.45319,0 8.0625,3.60931 8.0625,8.0625v0c0,4.45319 -3.60931,8.0625 -8.0625,8.0625h-38.96875c-5.19494,0 -9.40625,4.21131 -9.40625,9.40625v0c0,5.19494 4.21131,9.40625 9.40625,9.40625h6.71875c4.45319,0 8.0625,3.60931 8.0625,8.0625z" fill="url(#color-4_119460_gr4)"></path><path d="M148.62144,71.02525l-55.53181,64.83325c-4.42363,5.16538 -12.44312,5.16538 -16.86675,0l-55.53181,-64.83325c-2.74125,-3.19813 -2.451,-7.97919 0.65306,-10.83062l29.92531,-27.47431c2.2145,-2.02906 5.11431,-3.15781 8.127,-3.15781h50.51963c3.01,0 5.9125,1.12875 8.12431,3.15781l29.92531,27.47431c3.10675,2.85144 3.39431,7.6325 0.65575,10.83062z" fill="url(#color-5_119460_gr5)"></path><path d="M118.04038,32.72031c-2.21181,-2.02906 -5.11162,-3.15781 -8.12431,-3.15781h-50.51963c-3.01,0 -5.9125,1.12875 -8.12431,3.15781l-29.928,27.47431c-2.01025,1.84631 -2.81919,4.49619 -2.41069,7.009l40.19156,5.35887h51.0625l40.19156,-5.35887c0.4085,-2.51013 -0.40044,-5.16269 -2.41069,-7.009z" fill="url(#color-6_119460_gr6)"></path><path d="M110.1875,72.5625l-25.53125,67.1875l-25.53125,-67.1875z" fill="url(#color-7_119460_gr7)"></path><path d="M109.91606,29.5625h-50.51963c-1.92694,0 -3.78937,0.50794 -5.47444,1.37331l5.203,41.62669h51.0625l5.203,-41.62669c-1.68506,-0.86537 -3.54481,-1.37331 -5.47444,-1.37331z" fill="url(#color-8_119460_gr8)"></path><path d="M109.91606,29.5625h-50.51963c-1.92694,0 -3.78937,0.50794 -5.47444,1.37331l5.203,41.62669h51.0625l5.203,-41.62669c-1.68506,-0.86537 -3.54481,-1.37331 -5.47444,-1.37331z" fill="url(#color-9_119460_gr9)"></path><path d="M110.1875,72.5625h-51.0625l25.53125,-43z" fill="url(#color-10_119460_gr10)"></path></g></g></svg>