<svg xmlns="http://www.w3.org/2000/svg" x="0px" y="0px" width="96" height="96" viewBox="0 0 226 226" style=" fill:#000000;">
    <defs>
        <linearGradient x1="134.32404" y1="72.84263" x2="158.2" y2="48.96667" gradientUnits="userSpaceOnUse" id="color-1_JGKcvUTvnKRd_gr1">
            <stop offset="0" stop-color="#d7d7d7"></stop>
            <stop offset="1" stop-color="#c8c8c8"></stop>
        </linearGradient>
        <linearGradient x1="134.61596" y1="110.35863" x2="197.411" y2="197.26033" gradientUnits="userSpaceOnUse" id="color-2_JGKcvUTvnKRd_gr2">
            <stop offset="0" stop-color="#3f5b5c"></stop>
            <stop offset="1" stop-color="#334b4c"></stop>
        </linearGradient>
        <linearGradient x1="147.126" y1="115.49542" x2="191.48321" y2="136.04258" gradientUnits="userSpaceOnUse" id="color-3_JGKcvUTvnKRd_gr3">
            <stop offset="0" stop-color="#f6f6f6"></stop>
            <stop offset="1" stop-color="#d2d0d0"></stop>
        </linearGradient>
        <linearGradient x1="185.97917" y1="161.37812" x2="185.97917" y2="192.19888" gradientUnits="userSpaceOnUse" id="color-4_JGKcvUTvnKRd_gr4">
            <stop offset="0" stop-color="#ccb400"></stop>
            <stop offset="1" stop-color="#ae9b00"></stop>
        </linearGradient>
    </defs>
    <g fill="none" fill-rule="nonzero" stroke="none" stroke-width="1" stroke-linecap="butt" stroke-linejoin="miter" stroke-miterlimit="10" stroke-dasharray="" stroke-dashoffset="0" font-family="none" font-weight="none" font-size="none" text-anchor="none" style="mix-blend-mode: normal">
        <path d="M0,226v-226h226v226z" fill="none"></path>
        <g>
            <path d="M183.625,75.33333v117.70833c0,5.20271 -4.21396,9.41667 -9.41667,9.41667h-122.41667c-5.20271,0 -9.41667,-4.21396 -9.41667,-9.41667v-160.08333c0,-5.20271 4.21396,-9.41667 9.41667,-9.41667h80.04167z" fill="#efefef"></path>
            <path d="M131.83333,23.54167v42.375c0,5.20271 4.21396,9.41667 9.41667,9.41667h42.375z" fill="url(#color-1_JGKcvUTvnKRd_gr1)"></path>
            <path d="M183.625,98.875h-51.79167c-5.20271,0 -9.41667,4.21396 -9.41667,9.41667v84.75c0,5.20271 4.21396,9.41667 9.41667,9.41667h51.79167z" fill="#000000" opacity="0.05"></path>
            <path d="M183.625,103.58333h-49.4375c-3.8985,0 -7.0625,3.164 -7.0625,7.0625v84.75c0,3.8985 3.164,7.0625 7.0625,7.0625h49.4375z" fill="#000000" opacity="0.07"></path>
            <path d="M197.75,108.29167h-61.20833c-2.599,0 -4.70833,2.10933 -4.70833,4.70833v84.75c0,2.599 2.10933,4.70833 4.70833,4.70833h61.20833c2.599,0 4.70833,-2.10933 4.70833,-4.70833v-84.75c0,-2.599 -2.10933,-4.70833 -4.70833,-4.70833z" fill="url(#color-2_JGKcvUTvnKRd_gr2)"></path>
            <path d="M190.6875,131.83333h-47.08333c-1.2995,0 -2.35417,-1.05467 -2.35417,-2.35417v-9.41667c0,-1.2995 1.05467,-2.35417 2.35417,-2.35417h47.08333c1.2995,0 2.35417,1.05467 2.35417,2.35417v9.41667c0,1.2995 -1.05467,2.35417 -2.35417,2.35417z" fill="url(#color-3_JGKcvUTvnKRd_gr3)"></path>
            <path d="M171.85417,155.375h-9.41667c-1.2995,0 -2.35417,-1.05467 -2.35417,-2.35417v-9.41667c0,-1.2995 1.05467,-2.35417 2.35417,-2.35417h9.41667c1.2995,0 2.35417,1.05467 2.35417,2.35417v9.41667c0,1.2995 -1.05467,2.35417 -2.35417,2.35417z" fill="#cad2d9"></path>
            <path d="M153.02083,155.375h-9.41667c-1.2995,0 -2.35417,-1.05467 -2.35417,-2.35417v-9.41667c0,-1.2995 1.05467,-2.35417 2.35417,-2.35417h9.41667c1.2995,0 2.35417,1.05467 2.35417,2.35417v9.41667c0,1.2995 -1.05467,2.35417 -2.35417,2.35417z" fill="#cad2d9"></path>
            <path d="M171.85417,174.20833h-9.41667c-1.2995,0 -2.35417,-1.05467 -2.35417,-2.35417v-9.41667c0,-1.2995 1.05467,-2.35417 2.35417,-2.35417h9.41667c1.2995,0 2.35417,1.05467 2.35417,2.35417v9.41667c0,1.2995 -1.05467,2.35417 -2.35417,2.35417z" fill="#cad2d9"></path>
            <path d="M153.02083,174.20833h-9.41667c-1.2995,0 -2.35417,-1.05467 -2.35417,-2.35417v-9.41667c0,-1.2995 1.05467,-2.35417 2.35417,-2.35417h9.41667c1.2995,0 2.35417,1.05467 2.35417,2.35417v9.41667c0,1.2995 -1.05467,2.35417 -2.35417,2.35417z" fill="#cad2d9"></path>
            <path d="M171.85417,193.04167h-9.41667c-1.2995,0 -2.35417,-1.05467 -2.35417,-2.35417v-9.41667c0,-1.2995 1.05467,-2.35417 2.35417,-2.35417h9.41667c1.2995,0 2.35417,1.05467 2.35417,2.35417v9.41667c0,1.2995 -1.05467,2.35417 -2.35417,2.35417z" fill="#cad2d9"></path>
            <path d="M153.02083,193.04167h-9.41667c-1.2995,0 -2.35417,-1.05467 -2.35417,-2.35417v-9.41667c0,-1.2995 1.05467,-2.35417 2.35417,-2.35417h9.41667c1.2995,0 2.35417,1.05467 2.35417,2.35417v9.41667c0,1.2995 -1.05467,2.35417 -2.35417,2.35417z" fill="#cad2d9"></path>
            <path d="M190.6875,155.375h-9.41667c-1.2995,0 -2.35417,-1.05467 -2.35417,-2.35417v-9.41667c0,-1.2995 1.05467,-2.35417 2.35417,-2.35417h9.41667c1.2995,0 2.35417,1.05467 2.35417,2.35417v9.41667c0,1.2995 -1.05467,2.35417 -2.35417,2.35417z" fill="#cad2d9"></path>
            <path d="M190.6875,193.04167h-9.41667c-1.2995,0 -2.35417,-1.05467 -2.35417,-2.35417v-28.25c0,-1.2995 1.05467,-2.35417 2.35417,-2.35417h9.41667c1.2995,0 2.35417,1.05467 2.35417,2.35417v28.25c0,1.2995 -1.05467,2.35417 -2.35417,2.35417z" fill="url(#color-4_JGKcvUTvnKRd_gr4)"></path>
        </g>
    </g>
</svg>