<svg height="464pt" viewBox="0 0 464.00104 464" width="464pt" xmlns="http://www.w3.org/2000/svg"><path d="m320 16c0-8.835938-7.164062-16-16-16h-201.371094c-4.242187 0-8.3125 1.6875-11.3125 4.6875l-86.628906 86.625c-3 3.003906-4.6875 7.070312-4.6875 11.316406v329.375c0 8.835938 7.164062 16 16 16l288-.003906c8.835938 0 16-7.164062 16-16zm0 0" fill="#efefef"/><path d="m224 152h224c8.835938 0 16 7.164062 16 16v280c0 8.835938-7.164062 16-16 16h-224c-8.835938 0-16-7.164062-16-16v-280c0-8.835938 7.164062-16 16-16zm0 0" fill="#ffd04a"/><path d="m256 184h160c8.835938 0 16 7.164062 16 16v24c0 8.835938-7.164062 16-16 16h-160c-8.835938 0-16-7.164062-16-16v-24c0-8.835938 7.164062-16 16-16zm0 0" fill="#73c97c"/><path d="m80 96c8.835938 0 16-7.164062 16-16v-78.511719c-1.738281.777344-3.328125 1.859375-4.683594 3.199219l-86.628906 86.625c-1.339844 1.359375-2.421875 2.945312-3.199219 4.6875zm0 0" fill="#d6d6d6"/><path d="m160 192c0 30.929688-25.070312 56-56 56-30.925781 0-56-25.070312-56-56 0-30.925781 25.074219-56 56-56 30.929688 0 56 25.074219 56 56zm0 0" fill="#ff675b"/><path d="m104 176v-40c-30.925781 0-56 25.074219-56 56h40c8.835938 0 16-7.164062 16-16zm0 0" fill="#cc5249"/><path d="m140 40h24c2.210938 0 4 1.792969 4 4v24c0 2.210938-1.789062 4-4 4h-24c-2.207031 0-4-1.789062-4-4v-24c0-2.207031 1.792969-4 4-4zm0 0" fill="#ffd04a"/><path d="m192 32h16v16h-16zm0 0" fill="#bcbcbc"/><path d="m224 32h72v16h-72zm0 0" fill="#bcbcbc"/><path d="m192 64h16v16h-16zm0 0" fill="#bcbcbc"/><path d="m224 64h72v16h-72zm0 0" fill="#bcbcbc"/><path d="m128 96h16v16h-16zm0 0" fill="#bcbcbc"/><path d="m160 96h104v16h-104zm0 0" fill="#bcbcbc"/><path d="m280 96h16v16h-16zm0 0" fill="#bcbcbc"/><path d="m172 312h-24c-2.207031 0-4-1.789062-4-4v-24c0-2.207031 1.792969-4 4-4h24c2.210938 0 4 1.792969 4 4v24c0 2.210938-1.789062 4-4 4zm0 0" fill="#75c1ff"/><path d="m104 272h16v16h-16zm0 0" fill="#bcbcbc"/><path d="m24 272h64v16h-64zm0 0" fill="#bcbcbc"/><path d="m104 304h16v16h-16zm0 0" fill="#bcbcbc"/><path d="m24 304h64v16h-64zm0 0" fill="#bcbcbc"/><path d="m36 376h24c2.210938 0 4 1.792969 4 4v24c0 2.210938-1.789062 4-4 4h-24c-2.207031 0-4-1.789062-4-4v-24c0-2.207031 1.792969-4 4-4zm0 0" fill="#73c97c"/><path d="m88 368h16v16h-16zm0 0" fill="#bcbcbc"/><path d="m120 368h64v16h-64zm0 0" fill="#bcbcbc"/><path d="m88 400h16v16h-16zm0 0" fill="#bcbcbc"/><path d="m120 400h64v16h-64zm0 0" fill="#bcbcbc"/><path d="m168 336h16v16h-16zm0 0" fill="#bcbcbc"/><path d="m56 336h96v16h-96zm0 0" fill="#bcbcbc"/><path d="m24 336h16v16h-16zm0 0" fill="#bcbcbc"/><g fill="#efefef"><path d="m264 272h16c4.417969 0 8 3.582031 8 8v16c0 4.417969-3.582031 8-8 8h-16c-4.417969 0-8-3.582031-8-8v-16c0-4.417969 3.582031-8 8-8zm0 0"/><path d="m328 272h16c4.417969 0 8 3.582031 8 8v16c0 4.417969-3.582031 8-8 8h-16c-4.417969 0-8-3.582031-8-8v-16c0-4.417969 3.582031-8 8-8zm0 0"/><path d="m392 272h16c4.417969 0 8 3.582031 8 8v16c0 4.417969-3.582031 8-8 8h-16c-4.417969 0-8-3.582031-8-8v-16c0-4.417969 3.582031-8 8-8zm0 0"/><path d="m264 336h16c4.417969 0 8 3.582031 8 8v16c0 4.417969-3.582031 8-8 8h-16c-4.417969 0-8-3.582031-8-8v-16c0-4.417969 3.582031-8 8-8zm0 0"/><path d="m328 336h16c4.417969 0 8 3.582031 8 8v16c0 4.417969-3.582031 8-8 8h-16c-4.417969 0-8-3.582031-8-8v-16c0-4.417969 3.582031-8 8-8zm0 0"/><path d="m392 336h16c4.417969 0 8 3.582031 8 8v16c0 4.417969-3.582031 8-8 8h-16c-4.417969 0-8-3.582031-8-8v-16c0-4.417969 3.582031-8 8-8zm0 0"/><path d="m264 400h16c4.417969 0 8 3.582031 8 8v16c0 4.417969-3.582031 8-8 8h-16c-4.417969 0-8-3.582031-8-8v-16c0-4.417969 3.582031-8 8-8zm0 0"/><path d="m328 400h16c4.417969 0 8 3.582031 8 8v16c0 4.417969-3.582031 8-8 8h-16c-4.417969 0-8-3.582031-8-8v-16c0-4.417969 3.582031-8 8-8zm0 0"/><path d="m392 400h16c4.417969 0 8 3.582031 8 8v16c0 4.417969-3.582031 8-8 8h-16c-4.417969 0-8-3.582031-8-8v-16c0-4.417969 3.582031-8 8-8zm0 0"/></g></svg>