<svg xmlns="http://www.w3.org/2000/svg" x="0px" y="0px"
width="48" height="48"
viewBox="0 0 172 172"
style=" fill:#000000;"><defs><linearGradient x1="70.7565" y1="-12.68858" x2="97.77483" y2="162.22108" gradientUnits="userSpaceOnUse" id="color-1_l18XZ86Hg1Tf_gr1"><stop offset="0" stop-color="#70a7ab"></stop><stop offset="0.587" stop-color="#6ba6ae"></stop><stop offset="1" stop-color="#3e595b"></stop></linearGradient></defs><g fill="none" fill-rule="nonzero" stroke="none" stroke-width="1" stroke-linecap="butt" stroke-linejoin="miter" stroke-miterlimit="10" stroke-dasharray="" stroke-dashoffset="0" font-family="none" font-weight="none" font-size="none" text-anchor="none" style="mix-blend-mode: normal"><path d="M0,172v-172h172v172z" fill="none"></path><g fill="url(#color-1_l18XZ86Hg1Tf_gr1)"><path d="M139.75,146.98475v7.02692c0,3.999 -3.23933,7.23833 -7.23475,7.23833h-93.0305c-3.99542,0 -7.23475,-3.23933 -7.23475,-7.23475v-7.02692c0,-3.999 3.23933,-7.23833 7.23475,-7.23833h93.02692c3.999,0 7.23833,3.23933 7.23833,7.23475zM132.51525,10.75h-93.0305c-3.99542,0 -7.23475,3.23933 -7.23475,7.23475v7.02692c0,3.999 3.23933,7.23833 7.23475,7.23833h93.02692c3.999,0 7.23833,-3.23933 7.23833,-7.23475v-7.0305c0,-3.99542 -3.23933,-7.23475 -7.23475,-7.23475zM110.28067,111.08333h-13.24758h-0.28308v-50.76508h0.2795h13.25117c1.60533,0 2.40083,-1.94933 1.25417,-3.07092l-24.28067,-23.76825c-0.69517,-0.68083 -1.80958,-0.68083 -2.50833,0l-24.27708,23.76825c-1.14667,1.12158 -0.35117,3.07092 1.25417,3.07092h13.24758h0.2795v50.76508h-0.27233h-13.25117c-1.60533,0 -2.40083,1.94933 -1.25417,3.07092l24.27708,23.77183c0.69517,0.68083 1.80958,0.68083 2.50833,0l24.27708,-23.77183c1.14667,-1.12158 0.35117,-3.07092 -1.25417,-3.07092z"></path></g></g></svg>