<svg xmlns="http://www.w3.org/2000/svg" x="0px" y="0px"
width="96" height="96"
viewBox="0 0 226 226"
style=" fill:#000000;"><defs><linearGradient x1="89.08637" y1="26.90812" x2="118.38163" y2="125.78312" gradientUnits="userSpaceOnUse" id="color-1_WzMc5aE43tKs_gr1"><stop offset="0" stop-color="#c1aa0d"></stop><stop offset="1" stop-color="#927e09"></stop></linearGradient><linearGradient x1="113" y1="63.167" x2="113" y2="128.22204" gradientUnits="userSpaceOnUse" id="color-2_WzMc5aE43tKs_gr2"><stop offset="0" stop-color="#ffffff"></stop><stop offset="0.24" stop-color="#f8f8f7"></stop><stop offset="1" stop-color="#e3e3e1"></stop></linearGradient><linearGradient x1="121.87992" y1="131.532" x2="178.90254" y2="213.14154" gradientUnits="userSpaceOnUse" id="color-3_WzMc5aE43tKs_gr3"><stop offset="0" stop-color="#f1d715"></stop><stop offset="1" stop-color="#c3ae11"></stop></linearGradient><linearGradient x1="14.47342" y1="128.23617" x2="188.15442" y2="212.46354" gradientUnits="userSpaceOnUse" id="color-4_WzMc5aE43tKs_gr4"><stop offset="0" stop-color="#ecd218"></stop><stop offset="1" stop-color="#ac990b"></stop></linearGradient><linearGradient x1="113" y1="74.63179" x2="113" y2="110.29742" gradientUnits="userSpaceOnUse" id="color-5_WzMc5aE43tKs_gr5"><stop offset="0" stop-color="#f8f8f7"></stop><stop offset="0.443" stop-color="#f3f3f0"></stop><stop offset="1" stop-color="#eaeae7"></stop></linearGradient></defs><g fill="none" fill-rule="nonzero" stroke="none" stroke-width="1" stroke-linecap="butt" stroke-linejoin="miter" stroke-miterlimit="10" stroke-dasharray="" stroke-dashoffset="0" font-family="none" font-weight="none" font-size="none" text-anchor="none" style="mix-blend-mode: normal"><path d="M0,226v-226h226v226z" fill="none"></path><g id="Layer_1"><path d="M202.45833,138.89583h-178.91667v-60.7375c0,-3.29583 1.88333,-6.12083 4.2375,-8.00417l77.6875,-48.96667c4.70833,-2.825 10.35833,-2.825 15.06667,0l77.6875,48.96667c2.825,1.88333 4.2375,4.70833 4.2375,8.00417z" fill="url(#color-1_WzMc5aE43tKs_gr1)"></path><path d="M178.91667,150.66667h-131.83333v-84.75c0,-2.825 1.88333,-4.70833 4.70833,-4.70833h122.41667c2.825,0 4.70833,1.88333 4.70833,4.70833z" fill="url(#color-2_WzMc5aE43tKs_gr2)"></path><path d="M202.45833,80.04167v100.2875c0,4.70833 -3.76667,8.00417 -8.475,8.00417h-148.78333l22.6,-29.6625z" fill="url(#color-3_WzMc5aE43tKs_gr3)"></path><path d="M23.54167,80.04167v100.2875c0,4.70833 3.76667,8.00417 8.475,8.00417h162.4375c2.825,0 5.17917,-1.4125 6.59167,-3.29583z" fill="url(#color-4_WzMc5aE43tKs_gr4)"></path><path d="M130.42083,86.1625l-2.35417,-4.2375c-0.47083,-0.94167 -2.35417,-1.4125 -3.29583,-0.94167l-7.0625,4.70833v-8.00417c0,-1.4125 -0.94167,-2.35417 -2.35417,-2.35417h-4.70833c-1.4125,0 -2.35417,0.94167 -2.35417,2.35417v8.00417l-7.0625,-4.2375c-0.94167,-0.47083 -2.35417,-0.47083 -3.29583,0.94167l-2.35417,4.2375c-0.47083,0.94167 -0.47083,2.35417 0.94167,3.29583l7.53333,4.70833l-7.53333,4.70833c-0.94167,0.47083 -1.4125,2.35417 -0.94167,3.29583l2.35417,4.2375c0.47083,0.94167 2.35417,1.4125 3.29583,0.94167l7.0625,-4.2375v8.00417c0,1.4125 0.94167,2.35417 2.35417,2.35417h4.70833c1.4125,0 2.35417,-0.94167 2.35417,-2.35417v-8.00417l7.0625,4.2375c0.94167,0.47083 2.35417,0.47083 3.29583,-0.94167l2.35417,-4.2375c0.47083,-0.94167 0.47083,-2.35417 -0.94167,-3.29583l-7.53333,-4.70833l7.53333,-4.70833c0.94167,-0.94167 1.4125,-2.35417 0.94167,-3.76667z" fill="url(#color-5_WzMc5aE43tKs_gr5)"></path></g></g></svg>