<svg xmlns="http://www.w3.org/2000/svg" x="0px" y="0px"
width="64" height="64"
viewBox="0 0 172 172"
style=" fill:#000000;"><defs><linearGradient x1="79.32783" y1="130.892" x2="96.98292" y2="179.39242" gradientUnits="userSpaceOnUse" id="color-1_K6J9tQrMuisB_gr1"><stop offset="0" stop-color="#a1aab3"></stop><stop offset="1" stop-color="#8f979e"></stop></linearGradient><linearGradient x1="-3497.04667" y1="592.17092" x2="-2690.25917" y2="1257.13367" gradientUnits="userSpaceOnUse" id="color-2_K6J9tQrMuisB_gr2"><stop offset="0" stop-color="#a1aab3"></stop><stop offset="1" stop-color="#8f979e"></stop></linearGradient><linearGradient x1="80.24127" y1="33.436" x2="122.4493" y2="75.64403" gradientUnits="userSpaceOnUse" id="color-3_K6J9tQrMuisB_gr3"><stop offset="0" stop-color="#ccb400"></stop><stop offset="1" stop-color="#c4aa00"></stop></linearGradient><linearGradient x1="57.33319" y1="-3.35223" x2="57.33066" y2="84.28429" gradientUnits="userSpaceOnUse" id="color-4_K6J9tQrMuisB_gr4"><stop offset="0" stop-color="#889097"></stop><stop offset="0.331" stop-color="#848c94"></stop><stop offset="0.669" stop-color="#78828b"></stop><stop offset="1" stop-color="#64717c"></stop></linearGradient><linearGradient x1="328.74933" y1="333.70867" x2="467.03733" y2="264.56467" gradientUnits="userSpaceOnUse" id="color-5_K6J9tQrMuisB_gr5"><stop offset="0" stop-color="#889097"></stop><stop offset="0.331" stop-color="#848c94"></stop><stop offset="0.669" stop-color="#78828b"></stop><stop offset="1" stop-color="#64717c"></stop></linearGradient></defs><g fill="none" fill-rule="nonzero" stroke="none" stroke-width="1" stroke-linecap="butt" stroke-linejoin="miter" stroke-miterlimit="10" stroke-dasharray="" stroke-dashoffset="0" font-family="none" font-weight="none" font-size="none" text-anchor="none" style="mix-blend-mode: normal"><path d="M0,172v-172h172v172z" fill="none"></path><g><rect x="19" y="34" transform="scale(3.58333,3.58333)" width="11" height="6" fill="#64717c"></rect><path d="M20.60625,100.33333h18.81042v0v17.93129v0h-6.25833c-8.41774,0 -15.24167,-6.82393 -15.24167,-15.24167v0c-0.00001,-0.71333 0.28335,-1.39744 0.78775,-1.90184c0.50439,-0.5044 1.18851,-0.78777 1.90183,-0.78777z" fill="#64717c"></path><path d="M50.16667,155.338c-0.08523,-8.52258 6.75368,-15.50107 15.27625,-15.588h44.6975c8.52257,0.08694 15.36148,7.06542 15.27625,15.588v0c0.01273,1.27317 -1.00892,2.31567 -2.28208,2.32867h-15.9917c-0.95873,-0.04776 -1.80025,-0.65353 -2.14982,-1.54753c-1.63708,-3.49898 -8.71642,-6.13108 -17.2014,-6.13108c-8.48497,0 -15.56432,2.63207 -17.2014,6.13108c-0.34957,0.89401 -1.19109,1.49977 -2.14982,1.54753h-15.9917c-1.27317,-0.013 -2.29481,-1.0555 -2.28208,-2.32867z" fill="url(#color-1_K6J9tQrMuisB_gr1)"></path><path d="M143.33333,95.64744v0c0.00001,7.89529 -3.13637,15.4672 -8.71918,21.05002c-5.58281,5.58281 -13.15472,8.71921 -21.05001,8.71921l-72.76926,0c-2.74019,0 -4.96156,-2.22136 -4.96156,-4.96156v-22.32689c0,-2.74019 2.22136,-4.96156 4.96156,-4.96156l100.05767,0c1.3701,0 2.48078,1.11068 2.48078,2.48078z" fill="url(#color-2_K6J9tQrMuisB_gr2)"></path><path d="M48.375,77.04167h17.91667v-5.37142c-1.981,0 -3.58692,-1.60592 -3.58692,-3.58692c0,-1.981 1.60592,-3.58692 3.58692,-3.58692v-5.37142h-17.91667v5.3965c1.96715,0 3.56183,1.59469 3.56183,3.56183c0,1.96715 -1.59469,3.56183 -3.56183,3.56183z" fill="#64717c"></path><path d="M67.05241,60.88624l61.94759,0.03042c1.97902,0 3.58333,-1.60431 3.58333,-3.58333v-10.71958c-0.00579,-1.97662 -1.60671,-3.57755 -3.58333,-3.58333l-38.76407,-0.03042h-23.18352z" fill="url(#color-3_K6J9tQrMuisB_gr3)"></path><path d="M48.375,64.5h17.91667c0.98951,0 1.79167,-0.80216 1.79167,-1.79167v-21.5c0,-0.98951 -0.80216,-1.79167 -1.79167,-1.79167h-5.375l-3.03272,-7.15817c-1.74983,-6.14418 -0.35044,-12.75611 3.73864,-17.66451l3.12108,-3.74648c0.7439,-0.89142 0.68465,-2.20318 -0.1366,-3.0239v0c-0.87619,-0.87592 -2.29649,-0.87592 -3.17268,0l-7.30498,7.3048c-4.83166,4.83165 -7.54606,11.38478 -7.54607,18.21777v29.36216c0,0.98951 0.80216,1.79167 1.79167,1.79167z" fill="url(#color-4_K6J9tQrMuisB_gr4)"></path><rect x="13" y="20" transform="scale(3.58333,3.58333)" width="6" height="3" rx="0.5" ry="0" fill="url(#color-5_K6J9tQrMuisB_gr5)"></rect></g></g></svg>