<svg xmlns="http://www.w3.org/2000/svg" x="0px" y="0px"
width="64" height="64"
viewBox="0 0 172 172"
style=" fill:#000000;"><defs><radialGradient cx="86" cy="84.65625" r="84.00856" gradientUnits="userSpaceOnUse" id="color-1_119168_gr1"><stop offset="0" stop-color="#5b8386"></stop><stop offset="0.35" stop-color="#6ba6ae"></stop><stop offset="0.907" stop-color="#72a3a4"></stop><stop offset="1" stop-color="#70a7ab"></stop></radialGradient><linearGradient x1="86" y1="7.75613" x2="86" y2="164.62013" gradientUnits="userSpaceOnUse" id="color-2_119168_gr2"><stop offset="0" stop-color="#918f8f"></stop><stop offset="0.63" stop-color="#6e6c6c"></stop><stop offset="1" stop-color="#5a5656"></stop><stop offset="1" stop-color="#5a5656"></stop></linearGradient><linearGradient x1="86" y1="134.375" x2="86" y2="45.6875" gradientUnits="userSpaceOnUse" id="color-3_119168_gr3"><stop offset="0" stop-color="#77afb5"></stop><stop offset="0.989" stop-color="#78b2b5"></stop></linearGradient><linearGradient x1="56.4375" y1="122.56344" x2="56.4375" y2="165.60106" gradientUnits="userSpaceOnUse" id="color-4_119168_gr4"><stop offset="0" stop-color="#b2b2b2"></stop><stop offset="0.594" stop-color="#949494"></stop><stop offset="1" stop-color="#848484"></stop><stop offset="1" stop-color="#848484"></stop></linearGradient><linearGradient x1="56.4375" y1="134.375" x2="56.4375" y2="118.25" gradientUnits="userSpaceOnUse" id="color-5_119168_gr5"><stop offset="0" stop-color="#929292"></stop><stop offset="1" stop-color="#959595"></stop></linearGradient><linearGradient x1="115.5625" y1="141.61513" x2="115.5625" y2="111.89944" gradientUnits="userSpaceOnUse" id="color-6_119168_gr6"><stop offset="0" stop-color="#ff634d"></stop><stop offset="0.204" stop-color="#fe6464"></stop><stop offset="0.521" stop-color="#fc6581"></stop><stop offset="0.794" stop-color="#fa6694"></stop><stop offset="0.989" stop-color="#fa669a"></stop><stop offset="1" stop-color="#fa669a"></stop></linearGradient></defs><g fill="none" fill-rule="nonzero" stroke="none" stroke-width="1" stroke-linecap="butt" stroke-linejoin="miter" stroke-miterlimit="10" stroke-dasharray="" stroke-dashoffset="0" font-family="none" font-weight="none" font-size="none" text-anchor="none" style="mix-blend-mode: normal"><path d="M0,172v-172h172v172z" fill="none"></path><g><path d="M155.875,145.125c-2.96969,0 -5.375,-2.40531 -5.375,-5.375c0,-2.96969 2.40531,-5.375 5.375,-5.375h6.71875c5.17344,0 9.40625,-4.23281 9.40625,-9.40625c0,-5.17344 -4.23281,-9.40625 -9.40625,-9.40625h-28.21875c-3.71144,0 -6.71875,-3.00731 -6.71875,-6.71875c0,-3.71144 3.00731,-6.71875 6.71875,-6.71875h21.5c4.43437,0 8.0625,-3.62812 8.0625,-8.0625c0,-4.43438 -3.62813,-8.0625 -8.0625,-8.0625h-43v-16.125h48.375c6.27531,0 11.34125,-5.45025 10.69356,-11.85187c-0.56169,-5.57925 -5.59537,-9.64812 -11.2015,-9.64812h-4.86706c-2.96969,0 -5.375,-2.40531 -5.375,-5.375c0,-2.96969 2.40531,-5.375 5.375,-5.375h0.95944c3.51525,0 6.71606,-2.52894 7.06813,-6.02538c0.40312,-4.02319 -2.74394,-7.41212 -6.68381,-7.41212h-37.625c-2.22525,0 -4.03125,-1.806 -4.03125,-4.03125c0,-2.22525 1.806,-4.03125 4.03125,-4.03125h10.36569c3.51525,0 6.71606,-2.52894 7.06813,-6.02537c0.40312,-4.02319 -2.74394,-7.41212 -6.68381,-7.41212h-88.30319c-3.51525,0 -6.71606,2.52894 -7.06812,6.02538c-0.40313,4.02319 2.74394,7.41213 6.68381,7.41213h9.40625c2.96969,0 5.375,2.40531 5.375,5.375c0,2.96969 -2.40531,5.375 -5.375,5.375h-34.42956c-5.60612,0 -10.63712,4.06887 -11.2015,9.64813c-0.64769,6.40162 4.41825,11.85188 10.69356,11.85188h6.71875c5.19494,0 9.40625,4.21131 9.40625,9.40625c0,5.19494 -4.21131,9.40625 -9.40625,9.40625h-8.89831c-5.60612,0 -10.63712,4.06887 -11.2015,9.64812c-0.64769,6.40163 4.41825,11.85188 10.69356,11.85188h45.6875v29.5625h-43c-4.43438,0 -8.0625,3.62812 -8.0625,8.0625c0,4.43437 3.62812,8.0625 8.0625,8.0625v0c2.96969,0 5.375,2.40531 5.375,5.375c0,2.96969 -2.40531,5.375 -5.375,5.375h-4.86706c-5.60612,0 -10.63712,4.06888 -11.2015,9.64813c-0.64769,6.40162 4.41825,11.85187 10.69356,11.85187h144.61706c5.60612,0 10.63712,-4.06888 11.2015,-9.64813c0.64769,-6.40162 -4.41825,-11.85187 -10.69356,-11.85187z" fill="url(#color-1_119168_gr1)"></path><path d="M134.375,32.25h-96.75c-5.93669,0 -10.75,4.81331 -10.75,10.75v96.75c0,5.93669 4.81331,10.75 10.75,10.75h96.75c5.93669,0 10.75,-4.81331 10.75,-10.75v-96.75c0,-5.93669 -4.81331,-10.75 -10.75,-10.75z" fill="url(#color-2_119168_gr2)"></path><path d="M91.375,61.8125h-10.75c-2.96969,0 -5.375,-2.40531 -5.375,-5.375v-5.375c0,-2.96969 2.40531,-5.375 5.375,-5.375h10.75c2.96969,0 5.375,2.40531 5.375,5.375v5.375c0,2.96969 -2.40531,5.375 -5.375,5.375zM67.1875,56.4375v-5.375c0,-2.96969 -2.40531,-5.375 -5.375,-5.375h-10.75c-2.96969,0 -5.375,2.40531 -5.375,5.375v5.375c0,2.96969 2.40531,5.375 5.375,5.375h10.75c2.96969,0 5.375,-2.40531 5.375,-5.375zM126.3125,56.4375v-5.375c0,-2.96969 -2.40531,-5.375 -5.375,-5.375h-10.75c-2.96969,0 -5.375,2.40531 -5.375,5.375v5.375c0,2.96969 2.40531,5.375 5.375,5.375h10.75c2.96969,0 5.375,-2.40531 5.375,-5.375zM96.75,80.625v-5.375c0,-2.96969 -2.40531,-5.375 -5.375,-5.375h-10.75c-2.96969,0 -5.375,2.40531 -5.375,5.375v5.375c0,2.96969 2.40531,5.375 5.375,5.375h10.75c2.96969,0 5.375,-2.40531 5.375,-5.375zM67.1875,80.625v-5.375c0,-2.96969 -2.40531,-5.375 -5.375,-5.375h-10.75c-2.96969,0 -5.375,2.40531 -5.375,5.375v5.375c0,2.96969 2.40531,5.375 5.375,5.375h10.75c2.96969,0 5.375,-2.40531 5.375,-5.375zM126.3125,80.625v-5.375c0,-2.96969 -2.40531,-5.375 -5.375,-5.375h-10.75c-2.96969,0 -5.375,2.40531 -5.375,5.375v5.375c0,2.96969 2.40531,5.375 5.375,5.375h10.75c2.96969,0 5.375,-2.40531 5.375,-5.375zM96.75,104.8125v-5.375c0,-2.96969 -2.40531,-5.375 -5.375,-5.375h-10.75c-2.96969,0 -5.375,2.40531 -5.375,5.375v5.375c0,2.96969 2.40531,5.375 5.375,5.375h10.75c2.96969,0 5.375,-2.40531 5.375,-5.375zM67.1875,104.8125v-5.375c0,-2.96969 -2.40531,-5.375 -5.375,-5.375h-10.75c-2.96969,0 -5.375,2.40531 -5.375,5.375v5.375c0,2.96969 2.40531,5.375 5.375,5.375h10.75c2.96969,0 5.375,-2.40531 5.375,-5.375zM126.3125,104.8125v-5.375c0,-2.96969 -2.40531,-5.375 -5.375,-5.375h-10.75c-2.96969,0 -5.375,2.40531 -5.375,5.375v5.375c0,2.96969 2.40531,5.375 5.375,5.375h10.75c2.96969,0 5.375,-2.40531 5.375,-5.375zM96.75,129v-5.375c0,-2.96969 -2.40531,-5.375 -5.375,-5.375h-10.75c-2.96969,0 -5.375,2.40531 -5.375,5.375v5.375c0,2.96969 2.40531,5.375 5.375,5.375h10.75c2.96969,0 5.375,-2.40531 5.375,-5.375z" fill="url(#color-3_119168_gr3)"></path><path d="M61.8125,134.375h-10.75c-2.96969,0 -5.375,-2.40531 -5.375,-5.375v-5.375c0,-2.96969 2.40531,-5.375 5.375,-5.375h10.75c2.96969,0 5.375,2.40531 5.375,5.375v5.375c0,2.96969 -2.40531,5.375 -5.375,5.375z" fill="url(#color-4_119168_gr4)"></path><path d="M61.8125,134.375h-10.75c-2.96969,0 -5.375,-2.40531 -5.375,-5.375v-5.375c0,-2.96969 2.40531,-5.375 5.375,-5.375h10.75c2.96969,0 5.375,2.40531 5.375,5.375v5.375c0,2.96969 -2.40531,5.375 -5.375,5.375z" fill="url(#color-5_119168_gr5)"></path><path d="M120.9375,134.375h-10.75c-2.96969,0 -5.375,-2.40531 -5.375,-5.375v-5.375c0,-2.96969 2.40531,-5.375 5.375,-5.375h10.75c2.96969,0 5.375,2.40531 5.375,5.375v5.375c0,2.96969 -2.40531,5.375 -5.375,5.375z" fill="url(#color-6_119168_gr6)"></path></g></g></svg>