<svg xmlns="http://www.w3.org/2000/svg" x="0px" y="0px"
width="48" height="48"
viewBox="0 0 172 172"
style=" fill:#000000;"><defs><linearGradient x1="86.18633" y1="165.85458" x2="79.13792" y2="30.78442" gradientUnits="userSpaceOnUse" id="color-1_zjhC4GSZRsJy_gr1"><stop offset="0" stop-color="#8f979e"></stop><stop offset="1" stop-color="#a1aab3"></stop></linearGradient><linearGradient x1="97.5455" y1="32.84842" x2="134.04175" y2="110.70708" gradientUnits="userSpaceOnUse" id="color-2_zjhC4GSZRsJy_gr2"><stop offset="0.273" stop-color="#a79408"></stop><stop offset="0.588" stop-color="#b09f08"></stop><stop offset="0.758" stop-color="#b7a209"></stop><stop offset="0.894" stop-color="#cbb608"></stop><stop offset="1" stop-color="#ccb400"></stop></linearGradient></defs><g fill="none" fill-rule="nonzero" stroke="none" stroke-width="1" stroke-linecap="butt" stroke-linejoin="miter" stroke-miterlimit="10" stroke-dasharray="" stroke-dashoffset="0" font-family="none" font-weight="none" font-size="none" text-anchor="none" style="mix-blend-mode: normal"><path d="M0,172v-172h172v172z" fill="none"></path><g><path d="M147.5545,26.101c-6.12392,-6.08808 -15.12883,-1.53367 -19.56858,2.85592c-3.85567,3.81983 -112.746,124.10517 -112.746,124.10517c-2.31842,2.537 0.258,4.91275 2.71617,2.69825c0,0 122.73633,-106.24583 126.70667,-110.209c4.57592,-4.5365 8.99417,-13.38017 2.89175,-19.45033zM139.2125,41.70283c-1.68775,2.18225 -2.21808,2.20733 -6.6865,6.64708c-2.89892,2.881 -6.91225,3.57617 -8.94042,1.56233c-2.01742,-2.01742 -1.32225,-5.977 1.58383,-8.84725c1.29717,-1.29358 7.28492,-7.267 7.52142,-7.36017c2.78067,-2.18225 6.15617,-2.56925 7.9765,-0.75967c2.01383,1.978 1.333,5.85158 -1.42617,8.70392c-0.00358,0.01792 -0.01075,0.03583 -0.02867,0.05375z" fill="url(#color-1_zjhC4GSZRsJy_gr1)"></path><path d="M74.76983,18.47567c-0.17917,-1.97083 1.28283,-3.71233 3.26083,-3.8915c1.72358,-0.1505 42.226,-3.69442 57.58775,26.8105c0.47658,0.94242 0.87433,1.87767 1.26133,2.81292c-0.89942,0.83133 -2.14283,1.94217 -4.35017,4.13875c-0.44792,0.44433 -0.9245,0.817 -1.41183,1.15383c-0.50167,-1.62683 -1.12517,-3.25725 -1.94933,-4.902c-13.13292,-26.09025 -50.11292,-22.90825 -50.482,-22.87958c-2.03175,0.20425 -3.74458,-1.27567 -3.91658,-3.24292zM157.64158,150.5c-19.1995,0 -39.68183,-1.93858 -39.68183,-25.08333c0,-11.008 5.41442,-21.99092 10.65325,-32.61192c6.62917,-13.44467 13.416,-27.27275 10.277,-42.097c-1.81675,1.59817 -3.99542,3.51167 -6.50733,5.70825c0.67725,11.04742 -4.66192,21.9085 -10.24475,33.23542c-5.59717,11.35558 -11.38783,23.09458 -11.38783,35.76167c0,32.25 32.86275,32.25 46.89508,32.25c1.99233,0.00358 3.60483,-1.59817 3.60483,-3.57975c0,-1.98158 -1.6125,-3.58333 -3.60842,-3.58333z" fill="url(#color-2_zjhC4GSZRsJy_gr2)"></path></g></g></svg>